<svg width="107" height="33" viewBox="0 0 107 33" fill="none" xmlns="http://www.w3.org/2000/svg">
<path d="M17.113 24.8485H15.8362V17.3414H18.1437C19.0573 17.3414 19.561 17.8666 19.561 18.8213L19.5493 21.6857C19.5493 21.7096 19.5493 21.7215 19.5493 21.7454C19.5961 21.7454 19.6547 21.7454 19.7367 21.7454L22.4073 21.6977V22.8553L19.5024 22.9031C18.7762 22.9031 18.2843 22.7121 18.2843 21.7812V18.8213C18.2843 18.6304 18.2608 18.5588 18.2608 18.5349C18.2491 18.5349 18.2023 18.523 18.1086 18.523H17.1247V24.8485H17.113Z" fill="white"/>
<path d="M36.1235 33H0L18.0617 0L36.1235 33ZM2.50662 31.4962H33.6169L18.0617 3.0792L2.50662 31.4962Z" fill="white"/>
<path d="M50.6127 10.9801V22.0915H37.8687L50.6127 10.9801Z" fill="white"/>
<path d="M47.6727 9.07053L40.8087 14.7157V9.07053H47.6727Z" fill="white"/>
<path d="M64.1297 21.9841L64.6334 22.3421H54.8294V14.9544L62.0213 20.9577L59.339 16.1241L56.317 10.8727H63.1692V21.4351L64.1297 21.9841Z" fill="white"/>
<path d="M80.903 12.6987L68.1591 19.1913V12.6987H80.903Z" fill="white"/>
<path d="M90.9646 8.16348V22.6644H84.1007V8.16348H90.9646ZM90.0744 13.8087H84.9909V16.6015H90.0744V13.8087Z" fill="white"/>
<path d="M104.329 22.6644H97.6412L100.944 6.65968L104.329 22.6644Z" fill="white"/>
<path d="M48.3521 31.9259V28.5483H48.8791L51.2101 30.5295C51.3741 30.6727 51.5029 30.792 51.5849 30.8995C51.5615 30.5891 51.5498 30.3863 51.5498 30.3146V28.5483H52.2408V31.9259H51.7137L49.2891 29.8372C49.1837 29.7537 49.09 29.6582 49.008 29.5627C49.0314 29.7776 49.0431 29.9566 49.0431 30.0998V31.9259H48.3521Z" fill="white"/>
<path d="M56.2467 31.9259V28.5483H59.667V29.1212H57.0198V29.8731H58.5191V30.4459H57.0198V31.2933H59.667V31.9259H56.2467Z" fill="white"/>
<path d="M64.1649 29.336V31.2933L66.3552 31.3649V29.3599H67.1283V31.2098C67.1283 31.4485 67.0697 31.6633 66.9526 31.7707C66.8355 31.8781 66.6246 31.9378 66.3084 31.9378H64.2234C63.9072 31.9378 63.6963 31.8781 63.5792 31.7707C63.4621 31.6633 63.4035 31.4485 63.4035 31.1382V29.3479H64.1649V29.336Z" fill="white"/>
<path d="M71.1342 31.9259V28.5483H73.9688C74.4608 28.5483 74.7185 28.7631 74.7185 29.2047V29.9924C74.7185 30.434 74.4725 30.6488 73.9688 30.6488H73.5354L75.0581 31.9259H73.9571L72.6218 30.6488H71.8956V31.9259H71.1342ZM73.6174 29.1331H71.8839V30.0759H73.6174C73.7346 30.0759 73.8165 30.064 73.8634 30.0401C73.922 30.0043 73.9571 29.9208 73.9571 29.8134V29.4076C73.9571 29.3002 73.922 29.2166 73.8634 29.1808C73.8283 29.145 73.7346 29.1331 73.6174 29.1331Z" fill="white"/>
<path d="M78.5135 29.9327C78.5135 29.6224 78.5721 29.5508 78.6892 29.4434C78.8063 29.336 79.0172 29.2763 79.3334 29.2763H81.7698C82.086 29.2763 82.2969 29.336 82.414 29.4434C82.5311 29.5508 82.5897 29.6224 82.5897 29.9327V31.3411C82.5897 31.6514 82.5311 31.8662 82.414 31.9736C82.2969 32.081 82.086 32.1407 81.7698 32.1407H79.3334C79.0172 32.1407 78.8063 32.081 78.6892 31.9736C78.5721 31.8662 78.5135 31.6514 78.5135 31.3411V29.9327ZM79.2866 31.4962H81.8283V29.9208H79.2866V31.4962Z" fill="white"/>
<path d="M86.5136 31.9259V28.5483H87.0407L89.3716 30.5295C89.5356 30.6727 89.6645 30.792 89.7465 30.8995C89.723 30.5891 89.7113 30.3863 89.7113 30.3146V28.5483H90.4024V31.9259H89.8753L87.4507 29.8372C87.3452 29.7537 87.2515 29.6582 87.1696 29.5627C87.193 29.7776 87.2047 29.9566 87.2047 30.0998V31.9259H86.5136Z" fill="white"/>
<path d="M93.7758 31.9259L95.6499 28.5483H96.3996L98.2971 31.9259H97.4303L97.0321 31.1859H94.9354L94.5489 31.9259H93.7758ZM95.2517 30.5772H96.7041L95.9896 29.2047L95.2517 30.5772Z" fill="white"/>
<path d="M100.851 6.64776C102.248 6.64776 103.381 5.49358 103.381 4.06982C103.381 2.64606 102.248 1.49188 100.851 1.49188C99.4533 1.49188 98.3205 2.64606 98.3205 4.06982C98.3205 5.49358 99.4533 6.64776 100.851 6.64776Z" fill="#E83818"/>
<path d="M99.7027 13.009L94.7011 17.7591L94.7129 12.9732L99.7027 13.009Z" fill="white"/>
<path d="M102.022 12.5197L107 7.73383V12.5197H102.022Z" fill="white"/>
</svg>
