<svg id="レイヤー_1" data-name="レイヤー 1" xmlns="http://www.w3.org/2000/svg" viewBox="0 0 120 23"><defs><style>.cls-1{fill:#fff;}</style></defs><title>アートボード 1mdpi</title><rect class="cls-1" x="0.35" y="17.42" width="21.09" height="2.45" rx="1.16"/><rect class="cls-1" x="2.28" y="4.31" width="16.96" height="2.44" rx="1.16"/><path class="cls-1" d="M40.48,18.65h2.11a1.16,1.16,0,0,1,1.16,1.16v.07a1.16,1.16,0,0,1-1.16,1.17H27.46a1.16,1.16,0,0,1-1.16-1.17v-.07a1.16,1.16,0,0,1,1.16-1.16h8.17a1.15,1.15,0,0,0,1.15-1.06l.57-6.28A1.16,1.16,0,0,0,36.2,10H29.59a1.16,1.16,0,0,1-1.16-1.16V8.77a1.16,1.16,0,0,1,1.16-1.16H39a1.16,1.16,0,0,1,1.15,1.27l-.82,8.49A1.16,1.16,0,0,0,40.48,18.65Z"/><rect class="cls-1" x="48.59" y="10.59" width="21.7" height="2.44" rx="1.16"/><path class="cls-1" d="M93.77,4.56V19.84A1.16,1.16,0,0,1,92.61,21H76.41a1.16,1.16,0,0,1-1.16-1.16V4.56A1.16,1.16,0,0,1,76.41,3.4h16.2A1.16,1.16,0,0,1,93.77,4.56ZM90.24,5.87H78.73A1.16,1.16,0,0,0,77.57,7V17.35a1.16,1.16,0,0,0,1.16,1.16H90.24a1.16,1.16,0,0,0,1.16-1.16V7A1.16,1.16,0,0,0,90.24,5.87Z"/><path class="cls-1" d="M102.27,21.22h0a1.16,1.16,0,0,1-.24-1.3l8.06-17.8a1.18,1.18,0,0,1,1-.68h.11a1.17,1.17,0,0,1,1.07,1.65l-8.17,17.79A1.16,1.16,0,0,1,102.27,21.22Z"/><rect class="cls-1" x="98.56" y="6.75" width="21.09" height="2.42" rx="1.16"/></svg>