<svg width="78" height="24" viewBox="0 0 78 24" fill="none" xmlns="http://www.w3.org/2000/svg">
<path d="M12.4749 18.0716H11.5442V12.6119H13.2263C13.8923 12.6119 14.2594 12.9939 14.2594 13.6882L14.2509 15.7714C14.2509 15.7888 14.2509 15.7975 14.2509 15.8148C14.285 15.8148 14.3277 15.8148 14.3875 15.8148L16.3343 15.7801V16.6221L14.2167 16.6568C13.6873 16.6568 13.3287 16.5179 13.3287 15.8409V13.6882C13.3287 13.5494 13.3116 13.4973 13.3116 13.4799C13.3031 13.4799 13.269 13.4713 13.2006 13.4713H12.4834V18.0716H12.4749Z" fill="white"/>
<path d="M26.333 24H0L13.1665 0L26.333 24ZM1.82726 22.9063H24.5057L13.1665 2.23942L1.82726 22.9063Z" fill="white"/>
<path d="M36.8952 7.98553V16.0665H27.6053L36.8952 7.98553Z" fill="white"/>
<path d="M34.7521 6.59674L29.7484 10.7023V6.59674H34.7521Z" fill="white"/>
<path d="M46.7488 15.9884L47.1159 16.2488H39.9691V10.8759L45.2118 15.242L43.2565 11.7266L41.0535 7.90741H46.0486V15.5891L46.7488 15.9884Z" fill="white"/>
<path d="M58.976 9.23544L49.686 13.9573V9.23544H58.976Z" fill="white"/>
<path d="M66.3107 5.93707V16.4832H61.3071V5.93707H66.3107ZM65.6617 10.0427H61.956V12.0738H65.6617V10.0427Z" fill="white"/>
<path d="M76.0532 16.4832H71.1777L73.5856 4.84341L76.0532 16.4832Z" fill="white"/>
<path d="M35.2473 23.2188V20.7624H35.6315L37.3307 22.2033C37.4502 22.3074 37.5442 22.3942 37.6039 22.4723C37.5869 22.2467 37.5783 22.0991 37.5783 22.047V20.7624H38.0821V23.2188H37.6979L35.9304 21.6998C35.8535 21.6391 35.7852 21.5696 35.7254 21.5002C35.7425 21.6564 35.7511 21.7866 35.7511 21.8908V23.2188H35.2473Z" fill="white"/>
<path d="M41.0023 23.2188V20.7624H43.4956V21.179H41.5658V21.7259H42.6588V22.1425H41.5658V22.7588H43.4956V23.2188H41.0023Z" fill="white"/>
<path d="M46.7744 21.3353V22.7588L48.3711 22.8109V21.3526H48.9346V22.698C48.9346 22.8716 48.892 23.0279 48.8066 23.106C48.7212 23.1841 48.5675 23.2275 48.3369 23.2275H46.8171C46.5865 23.2275 46.4328 23.1841 46.3475 23.106C46.2621 23.0279 46.2194 22.8716 46.2194 22.6459V21.3439H46.7744V21.3353Z" fill="white"/>
<path d="M51.8548 23.2188V20.7624H53.9212C54.2798 20.7624 54.4677 20.9186 54.4677 21.2398V21.8127C54.4677 22.1338 54.2883 22.2901 53.9212 22.2901H53.6053L54.7153 23.2188H53.9126L52.9392 22.2901H52.4098V23.2188H51.8548ZM53.665 21.1877H52.4013V21.8734H53.665C53.7504 21.8734 53.8102 21.8647 53.8443 21.8474C53.887 21.8213 53.9126 21.7606 53.9126 21.6825V21.3873C53.9126 21.3092 53.887 21.2485 53.8443 21.2224C53.8187 21.1964 53.7504 21.1877 53.665 21.1877Z" fill="white"/>
<path d="M57.2342 21.7693C57.2342 21.5436 57.2768 21.4915 57.3622 21.4134C57.4476 21.3353 57.6013 21.2919 57.8319 21.2919H59.6079C59.8384 21.2919 59.9921 21.3353 60.0775 21.4134C60.1629 21.4915 60.2056 21.5436 60.2056 21.7693V22.7935C60.2056 23.0192 60.1629 23.1754 60.0775 23.2535C59.9921 23.3317 59.8384 23.375 59.6079 23.375H57.8319C57.6013 23.375 57.4476 23.3317 57.3622 23.2535C57.2768 23.1754 57.2342 23.0192 57.2342 22.7935V21.7693ZM57.7977 22.9063H59.6506V21.7606H57.7977V22.9063Z" fill="white"/>
<path d="M63.066 23.2188V20.7624H63.4502L65.1494 22.2033C65.269 22.3074 65.3629 22.3942 65.4227 22.4723C65.4056 22.2467 65.397 22.0991 65.397 22.047V20.7624H65.9008V23.2188H65.5166L63.7491 21.6998C63.6722 21.6391 63.6039 21.5696 63.5442 21.5002C63.5612 21.6564 63.5698 21.7866 63.5698 21.8908V23.2188H63.066Z" fill="white"/>
<path d="M68.3599 23.2188L69.7261 20.7624H70.2726L71.6558 23.2188H71.024L70.7337 22.6807H69.2053L68.9235 23.2188H68.3599ZM69.4358 22.238H70.4946L69.9737 21.2398L69.4358 22.238Z" fill="white"/>
<path d="M73.5172 4.83472C74.5358 4.83472 75.3616 3.99531 75.3616 2.95986C75.3616 1.9244 74.5358 1.08499 73.5172 1.08499C72.4986 1.08499 71.6729 1.9244 71.6729 2.95986C71.6729 3.99531 72.4986 4.83472 73.5172 4.83472Z" fill="#E83818"/>
<path d="M72.6805 9.46113L69.0345 12.9157L69.043 9.43509L72.6805 9.46113Z" fill="white"/>
<path d="M74.3711 9.10525L78 5.6246V9.10525H74.3711Z" fill="white"/>
</svg>
