<svg xmlns="http://www.w3.org/2000/svg" viewBox="0 0 666 112.3"><path d="M139.9 91.6v.6c0 3.2-2.6 5.8-5.8 5.8H40.2c-3.2 0-5.8-2.6-5.8-5.8v-.6c0-3.2 2.6-5.8 5.8-5.8h93.9c3.2 0 5.8 2.6 5.8 5.8zm-11-65.6v.6c0 3.2-2.6 5.8-5.8 5.8H49.8c-3.2 0-5.8-2.6-5.8-5.8V26c0-3.2 2.6-5.8 5.8-5.8h73.3c3.2-.1 5.8 2.5 5.8 5.8zm106.4 65.9h10.5c3.2 0 5.8 2.6 5.8 5.8v.4c0 3.2-2.6 5.8-5.8 5.8h-75.7c-3.2 0-5.8-2.6-5.8-5.8v-.4c0-3.2 2.6-5.8 5.8-5.8H211c3 0 5.5-2.3 5.8-5.3l2.9-31.4c.3-3.4-2.4-6.3-5.8-6.3h-33.1c-3.2 0-5.8-2.6-5.8-5.8v-.6c0-3.2 2.6-5.8 5.8-5.8h47.1c3.4 0 6.1 3 5.8 6.4l-4.1 42.5c-.4 3.4 2.2 6.3 5.7 6.3zm149.2-34.5v.6c0 3.2-2.6 5.8-5.8 5.8h-97c-3.2 0-5.8-2.6-5.8-5.8v-.6c0-3.2 2.6-5.8 5.8-5.8h97c3.2 0 5.8 2.6 5.8 5.8zm117.6-36v76.5c0 3.2-2.6 5.8-5.8 5.8h-81.1c-3.2 0-5.8-2.6-5.8-5.8V21.4c0-3.2 2.6-5.8 5.8-5.8h81.1c3.2 0 5.8 2.6 5.8 5.8zM484.4 28h-57.6c-3.2 0-5.8 2.6-5.8 5.8v51.6c0 3.2 2.6 5.8 5.8 5.8h57.6c3.2 0 5.8-2.6 5.8-5.8V33.8c0-3.2-2.6-5.8-5.8-5.8zm141.4 4.4h-39.3l8.4-18.3c1.8-3.9-1.1-8.3-5.3-8.2h-.6c-2.3 0-4.3 1.4-5.2 3.4l-10.5 23.2h-41.4c-3.2 0-5.8 2.6-5.8 5.8v.5c0 3.2 2.6 5.8 5.8 5.8h35.9l-24.4 53.8c-1 2.2-.5 4.8 1.2 6.5 2.9 2.8 7.7 2 9.4-1.7l26.9-58.6h44.9c3.2 0 5.8-2.6 5.8-5.8v-.5c0-3.3-2.6-5.9-5.8-5.9z" fill="#d1d1d1"/></svg>