<?xml version="1.0" encoding="utf-8"?>
<!-- Generator: Adobe Illustrator 22.0.1, SVG Export Plug-In . SVG Version: 6.00 Build 0)  -->
<svg version="1.1" id="レイヤー_1" xmlns="http://www.w3.org/2000/svg" xmlns:xlink="http://www.w3.org/1999/xlink" x="0px"
	 y="0px" viewBox="0 0 666 112.3" style="enable-background:new 0 0 666 112.3;" xml:space="preserve">
<style type="text/css">
	.st0{fill:#D1D1D1;}
</style>
<path class="st0" d="M139.9,91.6v0.6c0,3.2-2.6,5.8-5.8,5.8H40.2c-3.2,0-5.8-2.6-5.8-5.8v-0.6c0-3.2,2.6-5.8,5.8-5.8h93.9
	C137.3,85.8,139.9,88.4,139.9,91.6z"/>
<path class="st0" d="M128.9,26v0.6c0,3.2-2.6,5.8-5.8,5.8H49.8c-3.2,0-5.8-2.6-5.8-5.8V26c0-3.2,2.6-5.8,5.8-5.8h73.3
	C126.3,20.1,128.9,22.7,128.9,26z"/>
<path class="st0" d="M235.3,91.9h10.5c3.2,0,5.8,2.6,5.8,5.8v0.4c0,3.2-2.6,5.8-5.8,5.8h-75.7c-3.2,0-5.8-2.6-5.8-5.8v-0.4
	c0-3.2,2.6-5.8,5.8-5.8H211c3,0,5.5-2.3,5.8-5.3l2.9-31.4c0.3-3.4-2.4-6.3-5.8-6.3h-33.1c-3.2,0-5.8-2.6-5.8-5.8v-0.6
	c0-3.2,2.6-5.8,5.8-5.8h47.1c3.4,0,6.1,3,5.8,6.4l-4.1,42.5C229.2,89,231.8,91.9,235.3,91.9z"/>
<path class="st0" d="M384.5,57.4V58c0,3.2-2.6,5.8-5.8,5.8h-97c-3.2,0-5.8-2.6-5.8-5.8v-0.6c0-3.2,2.6-5.8,5.8-5.8h97
	C381.9,51.6,384.5,54.2,384.5,57.4z"/>
<path class="st0" d="M502.1,21.4v76.5c0,3.2-2.6,5.8-5.8,5.8h-81.1c-3.2,0-5.8-2.6-5.8-5.8V21.4c0-3.2,2.6-5.8,5.8-5.8h81.1
	C499.5,15.6,502.1,18.2,502.1,21.4z M484.4,28h-57.6c-3.2,0-5.8,2.6-5.8,5.8v51.6c0,3.2,2.6,5.8,5.8,5.8h57.6c3.2,0,5.8-2.6,5.8-5.8
	V33.8C490.2,30.6,487.6,28,484.4,28z"/>
<path class="st0" d="M625.8,32.4h-39.3l8.4-18.3c1.8-3.9-1.1-8.3-5.3-8.2l-0.6,0c-2.3,0-4.3,1.4-5.2,3.4l-10.5,23.2h-41.4
	c-3.2,0-5.8,2.6-5.8,5.8v0.5c0,3.2,2.6,5.8,5.8,5.8h35.9l-24.4,53.8c-1,2.2-0.5,4.8,1.2,6.5c2.9,2.8,7.7,2,9.4-1.7l26.9-58.6h44.9
	c3.2,0,5.8-2.6,5.8-5.8v-0.5C631.6,35,629,32.4,625.8,32.4z"/>
</svg>
